<svg width="133" height="30" viewBox="0 0 133 30" fill="none" xmlns="http://www.w3.org/2000/svg">
    <path d="M106.224 6.54956C108.51 6.54956 110.364 5.08339 110.364 3.27478C110.364 1.46617 108.51 0 106.224 0C103.937 0 102.083 1.46617 102.083 3.27478C102.083 5.08339 103.937 6.54956 106.224 6.54956Z" fill="#FF7F00"/>
    <path d="M102.422 21.0413C102.422 23.5633 103.137 24.2785 105.659 24.2785C105.96 24.2785 106.525 24.2785 106.788 24.2785C109.31 24.2785 110.025 23.5633 110.025 21.0413C110.025 18.5947 110.025 13.7389 110.025 11.3299C110.025 8.80796 109.31 8.09277 106.788 8.09277C106.487 8.09277 105.923 8.09277 105.659 8.09277C103.137 8.09277 102.422 8.80796 102.422 11.3299C102.422 13.7766 102.422 18.6323 102.422 21.0413Z" fill="#FF7F00"/>
    <path d="M131.782 21.7567L127.189 15.32L130.841 10.6525C131.669 9.59857 130.916 8.09293 129.598 8.09293H125.872C125.081 8.09293 124.366 8.46934 123.915 9.10924L120.489 13.9273C120.489 11.1795 120.489 8.39406 120.489 6.54964C120.489 4.02768 119.774 3.3125 117.252 3.3125C116.951 3.3125 116.386 3.3125 116.123 3.3125C113.601 3.3125 112.886 4.02768 112.886 6.54964C112.886 10.2008 112.886 17.4656 112.886 21.0791C112.886 23.6011 113.601 24.3163 116.123 24.3163C116.424 24.3163 116.989 24.3163 117.252 24.3163C119.774 24.3163 120.489 23.6011 120.489 21.0791C120.489 20.1005 120.489 18.8959 120.489 17.5409L124.103 22.9235C124.705 23.7893 125.684 24.3163 126.738 24.3163H130.502C131.782 24.2786 132.534 22.8106 131.782 21.7567Z" fill="#FF7F00"/>
    <path d="M92.2208 7.94238C89.6236 7.94238 87.7415 9.03398 86.537 10.1256C86.3112 8.58228 85.4454 8.09295 83.3752 8.09295C83.074 8.09295 82.5094 8.09295 82.2459 8.09295C79.724 8.09295 79.0088 8.80813 79.0088 11.3301C79.0088 15.1695 79.0088 22.8859 79.0088 26.763C79.0088 29.2849 79.724 30.0001 82.2459 30.0001C82.5471 30.0001 83.1117 30.0001 83.3752 30.0001C85.8971 30.0001 86.6123 29.2849 86.6123 26.763C86.6123 25.6714 86.6123 22.4342 86.6123 22.4342C87.7415 23.4505 89.5107 24.4669 92.2208 24.4669C96.5119 24.4669 99.9749 20.8533 99.9749 16.1858C99.9373 11.5559 97.2647 7.94238 92.2208 7.94238ZM89.0213 20.0252C87.8168 20.0252 86.6123 19.31 86.6123 17.5409C86.6123 16.374 86.6123 15.9599 86.6123 14.9813C86.6123 13.1745 87.8921 12.3464 89.0213 12.3464C91.6186 12.3464 92.3714 14.6425 92.3714 16.1858C92.3714 17.7291 91.7315 20.0252 89.0213 20.0252Z" fill="#FF7F00"/>
    <path d="M13.212 7.94238C10.6148 7.94238 8.73275 9.03398 7.52823 10.1256C7.30238 8.58228 6.43664 8.09295 4.36637 8.09295C4.06524 8.09295 3.50063 8.09295 3.23714 8.09295C0.715182 8.09295 0 8.80813 0 11.3301C0 15.1695 0 22.8859 0 26.763C0 29.2849 0.715182 30.0001 3.23714 30.0001C3.53827 30.0001 4.10289 30.0001 4.36637 30.0001C6.88833 30.0001 7.60351 29.2849 7.60351 26.763C7.60351 25.6714 7.60351 22.4342 7.60351 22.4342C8.73275 23.4505 10.5019 24.4669 13.212 24.4669C17.5031 24.4669 20.9661 20.8533 20.9661 16.1858C20.9661 11.5559 18.256 7.94238 13.212 7.94238ZM10.0125 20.0252C8.80803 20.0252 7.60351 19.31 7.60351 17.5409C7.60351 16.374 7.60351 15.9599 7.60351 14.9813C7.60351 13.1745 8.88331 12.3464 10.0125 12.3464C12.6098 12.3464 13.3626 14.6425 13.3626 16.1858C13.3626 17.7291 12.7227 20.0252 10.0125 20.0252Z" fill="#FF7F00"/>
    <path d="M70.0125 7.90479C65.6084 7.90479 64.1404 10.2385 64.1404 10.2385C64.1404 10.2385 62.9359 7.90479 58.946 7.90479C56.6875 7.90479 55.1066 9.03402 54.0902 10.088C53.8644 8.54468 52.9987 8.05535 50.9284 8.05535C50.6273 8.05535 50.0626 8.05535 49.7992 8.05535C47.2772 8.05535 46.562 8.77053 46.562 11.2925C46.562 13.7392 46.562 18.5949 46.562 21.0039C46.562 23.5259 47.2772 24.241 49.7992 24.241C50.1003 24.241 50.6649 24.241 50.9284 24.241C53.4503 24.241 54.1655 23.5259 54.1655 21.0039C54.1655 19.7241 54.1655 17.7291 54.1655 15.7718C54.1655 12.8734 54.3914 12.083 56.0099 12.083C57.4027 12.083 57.6285 13.2875 57.6285 15.7718V18.7078C57.6285 18.7078 57.6285 20.4016 57.6285 21.0039C57.6285 23.5259 58.3437 24.241 60.8657 24.241C61.1668 24.241 61.7314 24.241 61.9949 24.241C64.5168 24.241 65.232 23.5635 65.232 21.0039C65.232 19.6865 65.232 15.7718 65.232 15.7718C65.232 13.9274 64.9309 12.083 67.0764 12.083C68.4692 12.083 68.695 13.2875 68.695 15.7718C68.695 16.9763 68.695 19.6865 68.695 21.0039C68.695 23.5259 69.4102 24.241 71.9321 24.241C72.2333 24.241 72.7979 24.241 73.0614 24.241C75.5833 24.241 76.2985 23.5259 76.2985 21.0039C76.2985 20.4393 76.2985 18.7078 76.2985 18.7078C76.2985 18.7078 76.2985 17.8044 76.2985 15.7718C76.2985 8.80817 73.1743 7.90479 70.0125 7.90479Z" fill="#FF7F00"/>
    <path d="M40.5395 8.09275C40.2384 8.09275 39.6738 8.09275 39.4103 8.09275C37.4153 8.09275 36.5872 8.5068 36.2861 9.93717C35.1568 8.92086 33.463 7.94219 31.0163 7.94219C25.9724 7.90454 22.8105 11.5181 22.8105 16.1856C22.8105 20.8155 26.2359 24.4667 30.5646 24.4667C33.3124 24.4667 35.0816 23.4503 36.2484 22.2458C36.4743 23.8268 37.3024 24.3161 39.4103 24.3161C39.7114 24.3161 40.276 24.3161 40.5395 24.3161C43.0615 24.3161 43.7767 23.6009 43.7767 21.0789C43.7767 18.6323 43.7767 13.7766 43.7767 11.3675C43.7767 8.80793 43.0615 8.09275 40.5395 8.09275ZM36.1732 17.5407C36.1732 19.3098 34.9686 20.025 33.7641 20.025C31.054 20.025 30.4141 17.7289 30.4141 16.1856C30.4141 14.6423 31.1669 12.3462 33.7641 12.3462C34.8934 12.3462 36.1732 13.1743 36.1732 14.9811C36.1732 15.9221 36.1732 16.3738 36.1732 17.5407Z" fill="#FF7F00"/>
</svg>
